<?xml version="1.0" encoding="UTF-8"?>
<svg width="140px" height="40px" viewBox="0 0 140 40" version="1.1" xmlns="http://www.w3.org/2000/svg" xmlns:xlink="http://www.w3.org/1999/xlink">
    <!-- Generator: Sketch 50.2 (55047) - http://www.bohemiancoding.com/sketch -->
    <title>ff3d-logo-full-sm</title>
    <desc>Created with Sketch.</desc>
    <defs></defs>
    <g id="Symbols" stroke="none" stroke-width="1" fill="none" fill-rule="evenodd">
        <g id="Header_login" transform="translate(-20.000000, -20.000000)" fill="#353F4F">
            <g id="ff3d-logo-full-sm">
                <g transform="translate(20.000000, 20.000000)">
                    <g id="Group">
                        <path d="M33.8709677,5.64516119 L33.8709677,34.3548388 C33.8709677,37.4725752 31.343543,40 28.2258065,40 L11.2903226,40 L11.2903226,34.2857143 L26.8709678,34.2857143 C27.6192245,34.2857143 28.2258065,33.6791323 28.2258065,32.9308756 L28.2258065,7.0691244 C28.2258065,6.32086766 27.6192245,5.71428571 26.8709678,5.71428571 L0,5.71428571 L0,5.71428571 C-3.86487858e-16,2.55837286 2.55837286,5.79731787e-16 5.71428571,0 L28.2258065,8.8817842e-16 C31.343543,3.08456575e-15 33.8709677,2.52742476 33.8709677,5.64516119 Z" id="Combined-Shape-Copy-3"></path>
                        <path d="M5.64516129,17.1428571 L5.64516129,22.8571429 L22.5806452,22.8571429 L22.5806452,28.5714286 L5.64516129,28.5714286 L5.64516129,40 L5.64516119,40 C2.52742476,40 3.81812595e-16,37.4725752 0,34.3548388 L0,11.4285714 L22.5806452,11.4285714 L22.5806452,17.1428571 L5.64516129,17.1428571 Z" id="Combined-Shape-Copy-4"></path>
                    </g>
                    <g id="Group-2" transform="translate(45.161290, 9.142857)">
                        <path d="M0,0.01614205 L8.0867725,0.01614205 L8.07069542,2.13075061 L2.54017904,2.13075061 L2.54017904,4.90718321 L7.62053711,4.90718321 L7.62053711,7.03793382 L2.54017904,7.03793382 L2.54017904,11.3155771 L0,11.3155771 L0,0.01614205 Z M17.3632491,11.3155771 L16.4790096,9.12025827 L11.2700348,9.12025827 L10.3857953,11.3155771 L7.76523085,11.3155771 L12.6526639,0.01614205 L15.2732284,0.01614205 L20.080276,11.3155771 L17.3632491,11.3155771 Z M12.1060431,7.07021792 L15.6590784,7.07021792 L13.8905993,2.67958031 L12.1060431,7.07021792 Z M21.2539031,0.01614205 L23.7940821,0.01614205 L23.7940821,11.3155771 L21.2539031,11.3155771 L21.2539031,0.01614205 Z M33.1991754,11.3155771 L31.4146192,8.08716707 L28.8262089,8.08716707 L28.8262089,11.3155771 L26.2860299,11.3155771 L26.2860299,0.01614205 L31.173463,0.01614205 C32.6418438,0.01614205 33.7779463,0.357812026 34.5818045,1.04116223 C35.3856626,1.72451243 35.7875856,2.69033543 35.7875856,3.93866021 C35.7875856,4.81033527 35.60806,5.55555246 35.2490034,6.17433414 C34.8899467,6.79311582 34.3674468,7.2639209 33.6814878,7.58676352 L36.0769731,11.3155771 L33.1991754,11.3155771 Z M28.8262089,5.95641646 L31.173463,5.95641646 C31.8808581,5.95641646 32.424794,5.79230726 32.8052868,5.46408394 C33.1857797,5.13586061 33.3760233,4.65429427 33.3760233,4.01937046 C33.3760233,3.39520807 33.1857797,2.92440299 32.8052868,2.60694108 C32.424794,2.28947918 31.8808581,2.13075061 31.173463,2.13075061 L28.8262089,2.13075061 L28.8262089,5.95641646 Z M37.9258376,0.01614205 L46.0126101,0.01614205 L45.996533,2.13075061 L40.4660167,2.13075061 L40.4660167,4.90718321 L45.5463747,4.90718321 L45.5463747,7.03793382 L40.4660167,7.03793382 L40.4660167,11.3155771 L37.9258376,11.3155771 L37.9258376,0.01614205 Z M55.2890867,11.3155771 L54.4048472,9.12025827 L49.1958725,9.12025827 L48.3116329,11.3155771 L45.6910685,11.3155771 L50.5785016,0.01614205 L53.199066,0.01614205 L58.0061137,11.3155771 L55.2890867,11.3155771 Z M50.0318807,7.07021792 L53.584916,7.07021792 L51.8164369,2.67958031 L50.0318807,7.07021792 Z M58.3437324,0.01614205 L61.3019156,0.01614205 L63.6491696,3.47054076 L66.0125008,0.01614205 L69.0189152,0.01614205 L65.272955,5.42372881 L69.3404568,11.3155771 L66.3018882,11.3155771 L63.6491696,7.55447942 L61.0446823,11.3155771 L58.070422,11.3155771 L62.1057697,5.53672316 L58.3437324,0.01614205 Z M79.0510147,4.68119451 C80.0370807,4.81033156 80.8221703,5.14393059 81.4063072,5.68200161 C81.9904442,6.22007264 82.2825082,6.91955448 82.2825082,7.78046812 C82.2825082,8.49072187 82.0976236,9.12294584 81.7278489,9.677159 C81.3580742,10.2313722 80.8328947,10.6618225 80.1522948,10.968523 C79.4716949,11.2752235 78.6758873,11.4285714 77.7648481,11.4285714 C76.9824261,11.4285714 76.2026954,11.3075073 75.4256326,11.0653753 C74.6485697,10.8232433 73.9920954,10.5030959 73.45619,10.1049233 L74.436892,8.21630347 C74.8977707,8.60371461 75.3961552,8.89964923 75.9320607,9.10411622 C76.4679661,9.30858321 77.0145814,9.41081517 77.5719231,9.41081517 C78.2793182,9.41081517 78.8259336,9.26822849 79.2117855,8.98305085 C79.5976374,8.6978732 79.7905605,8.30239693 79.7905605,7.79661017 C79.7905605,7.29082341 79.5976374,6.90610839 79.2117855,6.64245359 C78.8259336,6.37879879 78.2739593,6.24697337 77.555846,6.24697337 L75.7391357,6.24697337 L75.7391357,4.79418886 L78.5526251,2.06618241 L74.0349649,2.06618241 L74.0188878,0 L81.7198104,0 L81.7198104,1.53349475 L78.4722397,4.60048426 L79.0510147,4.68119451 Z M88.9223433,0.01614205 C90.0691809,0.01614205 91.092745,0.255580065 91.9930661,0.734463277 C92.8933872,1.21334649 93.5927333,1.88054455 94.0911253,2.73607748 C94.5895174,3.59161041 94.8387097,4.56819467 94.8387097,5.66585956 C94.8387097,6.76352446 94.5841584,7.74010872 94.0750483,8.59564165 C93.5659381,9.45117458 92.8558741,10.1183726 91.9448348,10.5972559 C91.0337956,11.0761391 89.9941547,11.3155771 88.8258808,11.3155771 L84.1474498,11.3155771 L84.1474498,0.01614205 L88.9223433,0.01614205 Z M88.9866516,9.16868442 C89.6083019,9.16868442 90.1683147,9.02071711 90.6667068,8.72477805 C91.1650988,8.42883898 91.5536244,8.01722082 91.8322952,7.48991122 C92.1109661,6.96260161 92.2502994,6.35997111 92.2502994,5.68200161 C92.2502994,5.00403212 92.1029276,4.39602098 91.8081796,3.85794996 C91.5134316,3.31987893 91.1115086,2.90288015 90.6023984,2.60694108 C90.0932883,2.31100202 89.5171986,2.16303471 88.8741121,2.16303471 L86.6876288,2.16303471 L86.6876288,9.16868442 L88.9866516,9.16868442 Z" id="FAIRFAX-3D"></path>
                        <path d="M2.29178825,16.0561798 C2.83551297,16.0561798 3.33165434,16.179239 3.78022723,16.4253612 C4.22880013,16.6714833 4.5822159,17.0098962 4.84048514,17.44061 C5.09875438,17.8713237 5.22788707,18.3461718 5.22788707,18.8651685 C5.22788707,19.3841652 5.09875438,19.8576758 4.84048514,20.2857143 C4.5822159,20.7137528 4.22744084,21.0508281 3.77614932,21.2969502 C3.3248578,21.5430724 2.82463856,21.6661316 2.27547659,21.6661316 L0,21.6661316 L0,16.0561798 L2.29178825,16.0561798 Z M2.30809991,21.1685393 C2.73764244,21.1685393 3.13183695,21.0668817 3.49069527,20.8635634 C3.84955358,20.6602451 4.13364549,20.3833618 4.34297951,20.0329053 C4.55231352,19.6824488 4.65697896,19.2932071 4.65697896,18.8651685 C4.65697896,18.43713 4.55095423,18.0465507 4.33890159,17.6934189 C4.12684895,17.3402872 3.84003846,17.0620663 3.47846152,16.858748 C3.11688458,16.6554297 2.71861219,16.5537721 2.28363242,16.5537721 L0.562752274,16.5537721 L0.562752274,21.1685393 L2.30809991,21.1685393 Z M19.4489359,16.0561798 L23.2658644,16.0561798 L23.2658644,16.5537721 L20.0116882,16.5537721 L20.0116882,18.5601926 L22.9233195,18.5601926 L22.9233195,19.0577849 L20.0116882,19.0577849 L20.0116882,21.1685393 L23.3718902,21.1685393 L23.3718902,21.6661316 L19.4489359,21.6661316 L19.4489359,16.0561798 Z M40.8960502,16.9711075 C40.6622486,16.8266445 40.4067018,16.7156237 40.1294022,16.6380417 C39.8521025,16.5604598 39.5911186,16.5216693 39.3464425,16.5216693 C38.9549607,16.5216693 38.6409644,16.5979126 38.4044441,16.7504013 C38.1679238,16.90289 38.0496655,17.1102181 38.0496655,17.3723917 C38.0496655,17.6024624 38.1149115,17.7897264 38.2454054,17.9341894 C38.3758993,18.0786524 38.5362957,18.1923484 38.7265994,18.2752809 C38.916903,18.3582134 39.177887,18.4505078 39.5095591,18.5521669 C39.8956036,18.664527 40.2068814,18.7755479 40.4434016,18.8852327 C40.6799219,18.9949176 40.881097,19.1540921 41.046933,19.3627608 C41.2127691,19.5714296 41.2956859,19.8469753 41.2956859,20.1894061 C41.2956859,20.4890331 41.2100505,20.7538779 41.0387772,20.9839486 C40.8675039,21.2140193 40.6269093,21.3919202 40.3169862,21.5176565 C40.0070632,21.6433928 39.6509288,21.70626 39.2485725,21.70626 C38.8516535,21.70626 38.4642554,21.6286792 38.0863667,21.4735152 C37.708478,21.3183513 37.3836074,21.1123608 37.111745,20.8555377 L37.3727316,20.3980738 C37.6282822,20.644196 37.9246077,20.8368104 38.2617171,20.975923 C38.5988264,21.1150355 38.9304935,21.1845907 39.2567283,21.1845907 C39.6917081,21.1845907 40.0369681,21.0976467 40.2925188,20.923756 C40.5480694,20.7498654 40.6758428,20.5157853 40.6758428,20.2215088 C40.6758428,19.9860876 40.6105968,19.7934732 40.4801028,19.6436597 C40.3496089,19.4938462 40.1892125,19.3788126 39.9989089,19.2985554 C39.8086052,19.2182982 39.5421841,19.1246661 39.1996375,19.0176565 C38.813593,18.8999459 38.5036745,18.7889251 38.2698729,18.6845907 C38.0360713,18.5802563 37.8376147,18.4250947 37.6744973,18.2191011 C37.5113799,18.0131076 37.4298224,17.7442499 37.4298224,17.4125201 C37.4298224,17.1289445 37.5113799,16.8801509 37.6744973,16.6661316 C37.8376147,16.4521124 38.0659757,16.2875875 38.359587,16.1725522 C38.6531984,16.0575168 38.9930212,16 39.3790658,16 C39.6889889,16 40.0002666,16.0454784 40.3129083,16.1364366 C40.62555,16.2273948 40.9014862,16.3477788 41.1407251,16.4975923 L40.8960502,16.9711075 Z M55.6716955,16.0561798 L56.2344477,16.0561798 L56.2344477,21.6661316 L55.6716955,21.6661316 L55.6716955,16.0561798 Z M75.0146056,18.9213483 L75.5121112,18.9213483 L75.5121112,20.975923 C75.2348116,21.2059937 74.9126595,21.3865697 74.5456454,21.5176565 C74.1786312,21.6487433 73.804826,21.7142857 73.4242187,21.7142857 C72.8859312,21.7142857 72.3897899,21.5858761 71.9357797,21.329053 C71.4817696,21.0722299 71.1215574,20.7244538 70.8551323,20.2857143 C70.5887071,19.8469748 70.4554966,19.3681139 70.4554966,18.8491172 C70.4554966,18.3301205 70.5887071,17.8539348 70.8551323,17.4205457 C71.1215574,16.9871567 71.4844882,16.6433935 71.9439356,16.3892456 C72.403383,16.1350977 72.9049615,16.0080257 73.4486862,16.0080257 C73.8347308,16.0080257 74.2085359,16.0749057 74.5701128,16.2086677 C74.9316898,16.3424298 75.2511233,16.5296938 75.5284229,16.7704655 L75.2021897,17.1637239 C74.968388,16.9497047 74.6992483,16.7851798 74.3947625,16.6701445 C74.0902767,16.5551091 73.774921,16.4975923 73.4486862,16.4975923 C73.0082692,16.4975923 72.6032003,16.6032627 72.2334675,16.8146067 C71.8637347,17.0259508 71.5701278,17.3108596 71.3526379,17.6693419 C71.135148,18.0278242 71.0264047,18.4210787 71.0264047,18.8491172 C71.0264047,19.2825062 71.135148,19.6797735 71.3526379,20.040931 C71.5701278,20.4020885 71.865094,20.688335 72.2375455,20.899679 C72.6099969,21.111023 73.016425,21.2166934 73.456842,21.2166934 C73.7287044,21.2166934 73.9992034,21.1725526 74.2683471,21.0842697 C74.5374909,20.9959867 74.7862412,20.8715899 75.0146056,20.7110754 L75.0146056,18.9213483 Z M94.2841132,16.0561798 L94.8387097,16.0561798 L94.8387097,21.6661316 L94.2433341,21.6661316 L90.7118597,16.9149278 L90.7118597,21.6661316 L90.1491074,21.6661316 L90.1491074,16.0561798 L90.744483,16.0561798 L94.2841132,20.8073836 L94.2841132,16.0561798 Z" id="DESIGN"></path>
                    </g>
                </g>
            </g>
        </g>
    </g>
</svg>